<?xml version="1.0"?>
<svg width="100" height="125" xmlns="http://www.w3.org/2000/svg" xmlns:svg="http://www.w3.org/2000/svg">
 <g>
  <title>Layer 1</title>
  <path fill="black" id="svg_1" d="m15.449219,16.390625l0,90l71,0l0,-90l-71,0zm37.17,44.897l0,-1.043l29.611,0l0,1.043l-29.611,0zm29.611,-39.992l0,0.646l-29.611,0l0,-0.646l29.611,0zm-32.951,0l0,0.646l-29.611,0l0,-0.646l29.611,0zm-29.611,1.747l29.611,0l0,1.087l-29.611,0l0,-1.087zm0,2.189l29.611,0l0,1.087l-29.611,0l0,-1.087zm29.611,2.188l0,1.087l-29.611,0l0,-1.087l29.611,0zm32.951,3.276l-29.611,0l0,-1.087l29.611,0l0,1.087zm0,1.101l0,1.087l-29.611,0l0,-1.087l29.611,0zm0,2.188l0,1.087l-29.611,0l0,-1.087l29.611,0zm0,2.189l0,1.087l-29.611,0l0,-1.087l29.611,0zm0,-7.667l-29.611,0l0,-1.087l29.611,0l0,1.087zm-32.951,1.102l0,1.087l-29.611,0l0,-1.087l29.611,0zm0,2.188l0,1.087l-29.611,0l0,-1.087l29.611,0zm0,2.188l0,1.087l-29.611,0l0,-1.087l29.611,0zm0,2.189l0,1.087l-29.611,0l0,-1.087l29.611,0zm-29.611,2.188l29.611,0l0,1.087l-29.611,0l0,-1.087zm0,2.188l29.611,0l0,1.088l-29.611,0l0,-1.088zm29.611,2.188l0,1.087l-29.611,0l0,-1.087l29.611,0zm32.951,7.653l-29.611,0l0,-1.087l29.611,0l0,1.087zm0,-2.189l-29.611,0l0,-1.087l29.611,0l0,1.087zm0,-2.188l-29.611,0l0,-1.086l29.611,0l0,1.086zm0,-2.188l-29.611,0l0,-1.087l29.611,0l0,1.087zm-32.951,1.101l0,1.086l-29.611,0l0,-1.086l29.611,0zm0,2.188l0,1.087l-29.611,0l0,-1.087l29.611,0zm0,2.189l0,1.087l-29.611,0l0,-1.087l29.611,0zm0,2.188l0,1.087l-29.611,0l0,-1.087l29.611,0zm-29.611,6.565l29.611,0l0,1.087l-29.611,0l0,-1.087zm0,-1.102l0,-1.087l29.611,0l0,1.087l-29.611,0zm0,-2.187l0,-1.087l29.611,0l0,1.087l-29.611,0zm0,5.477l29.611,0l0,1.043l-29.611,0l0,-1.043zm62.562,-1.101l-29.611,0l0,-1.087l29.611,0l0,1.087zm-29.611,-2.189l0,-1.087l29.611,0l0,1.087l-29.611,0zm0,-2.187l0,-1.087l29.611,0l0,1.087l-29.611,0zm0,-2.189l0,-1.087l29.611,0l0,1.087l-29.611,0zm29.611,-10.941l-29.611,0l0,-1.088l29.611,0l0,1.088zm-29.611,-2.189l0,-1.087l29.611,0l0,1.087l-29.611,0zm29.611,-13.13l-29.611,0l0,-1.087l29.611,0l0,1.087zm-29.611,-2.189l0,-1.087l29.611,0l0,1.087l-29.611,0zm-32.951,39.567l29.611,0l0,38.878l-29.611,0l0,-38.878zm32.951,38.878l0,-38.878l24.691,0l0,21.943l-0.064,0c-0.292,0 -0.528,0.214 -0.528,0.477l0,2.564c0,0.264 0.236,0.477 0.528,0.477l1.053,0c0.292,0 0.528,-0.213 0.528,-0.477l0,-2.564c0,-0.263 -0.236,-0.477 -0.528,-0.477l-0.065,0l0,-21.943l3.997,0l0,38.878l-29.612,0z"/>
 </g>
</svg>