<?xml version="1.0" encoding="UTF-8" standalone="no"?>
<svg
   xmlns:dc="http://purl.org/dc/elements/1.1/"
   xmlns:cc="http://creativecommons.org/ns#"
   xmlns:rdf="http://www.w3.org/1999/02/22-rdf-syntax-ns#"
   xmlns:svg="http://www.w3.org/2000/svg"
   xmlns="http://www.w3.org/2000/svg"
   xmlns:sodipodi="http://sodipodi.sourceforge.net/DTD/sodipodi-0.dtd"
   xmlns:inkscape="http://www.inkscape.org/namespaces/inkscape"
   viewBox="0 0 100 100"
   version="1.1"
   xml:space="preserve"
   style="clip-rule:evenodd;fill-rule:evenodd;stroke-linejoin:round;stroke-miterlimit:1.41420996"
   x="0px"
   y="0px"
   stroke-miterlimit="1.41421"
   id="svg3603"
   inkscape:version="0.91 r13725"
   sodipodi:docname="up1.svg"
   width="100"
   height="100"><metadata
     id="metadata3615"><rdf:RDF><cc:Work
         rdf:about=""><dc:format>image/svg+xml</dc:format><dc:type
           rdf:resource="http://purl.org/dc/dcmitype/StillImage" /><dc:title></dc:title></cc:Work></rdf:RDF></metadata><defs
     id="defs3613" /><sodipodi:namedview
     pagecolor="#ffffff"
     bordercolor="#666666"
     borderopacity="1"
     objecttolerance="10"
     gridtolerance="10"
     guidetolerance="10"
     inkscape:pageopacity="0"
     inkscape:pageshadow="2"
     inkscape:window-width="640"
     inkscape:window-height="480"
     id="namedview3611"
     showgrid="false"
     inkscape:zoom="1.888"
     inkscape:cx="50"
     inkscape:cy="62.5"
     inkscape:window-x="924"
     inkscape:window-y="408"
     inkscape:window-maximized="0"
     inkscape:current-layer="svg3603" /><path
     d="m 57.5858,15.5858 c 0,0 21.8135,21.8135 27.636,27.636 0.781041,0.781047 0.781041,2.04737 0,2.82842 -1.88169,1.88169 -5.18939,5.18939 -7.07108,7.07108 -0.781047,0.781041 -2.04737,0.781041 -2.82842,0 l -17.7365,-17.7365 0,51.201 c -8e-6,1.10456 -0.895431,1.99998 -1.99999,1.99999 -2.66111,0 -7.33891,0 -10,0 -1.10456,-5e-6 -1.99998,-0.895425 -1.99999,-1.99999 l 0,-51.201 -17.7365,17.7365 c -0.781047,0.781041 -2.04737,0.781041 -2.82842,0 -1.88169,-1.88169 -5.18939,-5.18939 -7.07108,-7.07108 -0.781041,-0.781047 -0.781041,-2.04737 10e-7,-2.82842 l 26.636,-26.636 c 0,0 4.28653,-4.28821 6.58292,-6.58551 0.780894,-0.781202 2.04722,-0.781452 2.82843,-5.58e-4 l 5.58826,5.58607 3.93e-4,0 z"
     style="fill:#000000"
     id="path3605"
     inkscape:connector-curvature="0" /></svg>